<svg width="111" height="112" viewBox="0 0 111 112" fill="none" xmlns="http://www.w3.org/2000/svg">
<g clip-path="url(#clip0_26_2)">
<path d="M93.6562 70H86.7188C85.7988 70 84.9165 70.3687 84.266 71.0251C83.6155 71.6815 83.25 72.5717 83.25 73.5V98H13.875V28H45.0938C46.0137 28 46.896 27.6313 47.5465 26.9749C48.197 26.3185 48.5625 25.4283 48.5625 24.5V17.5C48.5625 16.5717 48.197 15.6815 47.5465 15.0251C46.896 14.3687 46.0137 14 45.0938 14H10.4062C7.64634 14 4.99947 15.1062 3.04792 17.0754C1.09637 19.0445 0 21.7152 0 24.5L0 101.5C0 104.285 1.09637 106.955 3.04792 108.925C4.99947 110.894 7.64634 112 10.4062 112H86.7188C89.4787 112 92.1255 110.894 94.0771 108.925C96.0286 106.955 97.125 104.285 97.125 101.5V73.5C97.125 72.5717 96.7595 71.6815 96.109 71.0251C95.4585 70.3687 94.5762 70 93.6562 70ZM105.797 0H78.0469C73.4139 0 71.0985 5.66781 74.3613 8.96875L82.1075 16.7847L29.2676 70.0809C28.7825 70.5687 28.3976 71.1482 28.135 71.7864C27.8724 72.4245 27.7372 73.1087 27.7372 73.7997C27.7372 74.4907 27.8724 75.1748 28.135 75.813C28.3976 76.4511 28.7825 77.0307 29.2676 77.5184L34.1824 82.4688C34.6658 82.9582 35.2401 83.3465 35.8726 83.6115C36.505 83.8765 37.1831 84.0129 37.8679 84.0129C38.5527 84.0129 39.2308 83.8765 39.8632 83.6115C40.4957 83.3465 41.0701 82.9582 41.5535 82.4688L94.3673 29.1638L102.111 36.9688C105.363 40.25 111 37.9531 111 33.25V5.25C111 3.85761 110.452 2.52226 109.476 1.53769C108.5 0.553123 107.177 0 105.797 0Z" fill="black"/>
</g>
<defs>
<clipPath id="clip0_26_2">
<rect width="111" height="112" fill="white"/>
</clipPath>
</defs>
</svg>
