<svg width="92" height="92" viewBox="0 0 92 92" fill="none" xmlns="http://www.w3.org/2000/svg">
<path d="M46.0103 22.4124C32.9568 22.4124 22.4279 32.9437 22.4279 46C22.4279 59.0563 32.9568 69.5876 46.0103 69.5876C59.0637 69.5876 69.5926 59.0563 69.5926 46C69.5926 32.9437 59.0637 22.4124 46.0103 22.4124ZM46.0103 61.335C37.5748 61.335 30.6786 54.4579 30.6786 46C30.6786 37.5421 37.5543 30.665 46.0103 30.665C54.4663 30.665 61.3419 37.5421 61.3419 46C61.3419 54.4579 54.4457 61.335 46.0103 61.335ZM76.0578 21.4475C76.0578 24.5063 73.5949 26.9492 70.5573 26.9492C67.4992 26.9492 65.0568 24.4858 65.0568 21.4475C65.0568 18.4092 67.5197 15.9458 70.5573 15.9458C73.5949 15.9458 76.0578 18.4092 76.0578 21.4475ZM91.6767 27.0314C91.3278 19.6615 89.6448 13.1333 84.247 7.75477C78.8696 2.37621 72.3429 0.692848 64.9747 0.323329C57.3807 -0.107776 34.6193 -0.107776 27.0253 0.323329C19.6776 0.67232 13.1509 2.35568 7.75304 7.73424C2.35516 13.1128 0.692694 19.641 0.323257 27.0108C-0.107752 34.6065 -0.107752 57.373 0.323257 64.9686C0.67217 72.3385 2.35516 78.8667 7.75304 84.2452C13.1509 89.6238 19.6571 91.3071 27.0253 91.6767C34.6193 92.1078 57.3807 92.1078 64.9747 91.6767C72.3429 91.3277 78.8696 89.6443 84.247 84.2452C89.6243 78.8667 91.3073 72.3385 91.6767 64.9686C92.1078 57.373 92.1078 34.627 91.6767 27.0314ZM81.8661 73.1186C80.2653 77.1422 77.1661 80.2421 73.1228 81.8639C67.0682 84.2658 52.7012 83.7115 46.0103 83.7115C39.3194 83.7115 24.9318 84.2452 18.8977 81.8639C14.875 80.2626 11.7758 77.1628 10.1544 73.1186C7.75304 67.0626 8.30719 52.6924 8.30719 46C8.30719 39.3076 7.77356 24.9169 10.1544 18.8814C11.7553 14.8577 14.8544 11.7579 18.8977 10.1361C24.9524 7.73424 39.3194 8.28852 46.0103 8.28852C52.7012 8.28852 67.0887 7.75477 73.1228 10.1361C77.1456 11.7374 80.2447 14.8372 81.8661 18.8814C84.2675 24.9374 83.7133 39.3076 83.7133 46C83.7133 52.6924 84.2675 67.0831 81.8661 73.1186Z" fill="#aab6d8"/>
</svg>
