<svg width="98" height="98" viewBox="0 0 98 98" fill="#aab6d8" xmlns="http://www.w3.org/2000/svg">
<path d="M25.3192 85.75H7.54141V28.5004H25.3192V85.75ZM16.4207 20.6911C10.736 20.6911 6.125 15.9825 6.125 10.2977C6.125 7.56709 7.20973 4.94833 9.14055 3.01751C11.0714 1.08668 13.6901 0.00195312 16.4207 0.00195312C19.1513 0.00195312 21.7701 1.08668 23.7009 3.01751C25.6318 4.94833 26.7165 7.56709 26.7165 10.2977C26.7165 15.9825 22.1036 20.6911 16.4207 20.6911ZM91.8559 85.75H74.1163V57.8813C74.1163 51.2395 73.9823 42.7219 64.8733 42.7219C55.6303 42.7219 54.2139 49.9379 54.2139 57.4028V85.75H36.4552V28.5004H53.5057V36.3098H53.7545C56.128 31.8118 61.9257 27.0649 70.5753 27.0649C88.5675 27.0649 91.875 38.9129 91.875 54.302V85.75H91.8559Z" fill="#aab6d8"/>
</svg>
